<?xml version="1.0" standalone="no"?><!DOCTYPE svg PUBLIC "-//W3C//DTD SVG 1.1//EN" "http://www.w3.org/Graphics/SVG/1.1/DTD/svg11.dtd"><svg t="1546851500536" class="icon" style="" viewBox="0 0 1024 1024" version="1.1" xmlns="http://www.w3.org/2000/svg" p-id="2177" xmlns:xlink="http://www.w3.org/1999/xlink" width="200" height="200"><defs><style type="text/css">@font-face { font-family: rbicon; src: url("chrome-extension://dipiagiiohfljcicegpgffpbnjmgjcnf/fonts/rbicon.woff2") format("woff2"); font-weight: normal; font-style: normal; }
</style></defs><path d="M139.407562 752.33574c0-11.497868 9.251711-21.262256 21.022803-21.262256 11.520381 0 21.547759 9.764388 21.547759 21.262256l0 49.14121 42.103934-24.548092c10.015098-5.520737 23.030529-2.509147 28.563546 7.756661 5.988388 10.266831 2.49789 23.088858-7.517207 28.791743l-42.594097 24.593118 42.594097 24.320918c10.016121 5.977132 13.505595 19.026332 7.517207 29.293163-5.531993 9.490142-18.547425 13.277398-28.563546 7.254218l-42.103934-24.319895 0 48.867988c0 11.772115-10.026354 21.262256-21.547759 21.262256-11.772115 0-21.022803-9.490142-21.022803-21.262256l0-48.867988-42.594097 24.319895c-10.289344 6.02318-23.087834 2.236947-28.563546-7.756661-6.034437-10.038634-2.521426-22.813588 7.266497-28.79072l42.594097-24.320918-42.594097-24.593118c-9.7869-6.02318-13.300934-18.524912-7.266497-29.063943 5.475711-9.993608 18.524912-13.004175 28.563546-7.483438l42.594097 24.548092L139.407562 752.33574 139.407562 752.33574zM344.334861 285.881053 344.334861 285.881053 344.334861 241.759159c0-45.080731 18.547425-86.693478 48.606021-116.716258 30.080086-30.114878 71.65804-48.365544 116.751051-48.365544l0 0c45.593408 0 87.172385 18.250666 116.750027 48.365544l1.984191 2.464121c28.587082 29.567409 46.620807 69.673849 46.620807 114.252137l0 43.848671c12.514012 4.243651 23.544229 11.042497 32.567743 19.803022l2.520403 3.01159c13.505595 14.282285 21.274536 33.536814 21.274536 54.616922l0 145.32483c0 22.540366-9.251711 42.844807-23.794939 57.627489-14.532995 14.236236-35.088146 24.046672-57.628512 24.046672L369.39563 590.038354c-22.540366 0-42.594097-9.810437-57.137325-24.046672l-0.490164 0-0.76441-1.00284c-14.258749-14.783705-23.303752-34.585703-23.303752-56.624648L287.699979 363.03834c0-22.540366 9.524934-42.61661 24.069185-57.628512C321.041342 296.649304 331.798337 289.851481 344.334861 285.881053L344.334861 285.881053zM604.653725 281.364179 604.653725 281.364179 604.653725 241.759159c0-25.049512-10.289344-48.092321-26.327622-65.110927l-1.494027-1.551332c-17.544585-17.018605-41.08779-27.786857-67.141166-27.786857l0 0c-26.065655 0-49.860595 10.768251-67.153446 27.786857l0 0 0 0c-16.528442 17.064654-27.559683 40.608883-27.559683 66.663282l0 39.60502L604.653725 281.365202 604.653725 281.364179zM649.985166 352.270089 649.985166 352.270089l-9.274224 0-0.992607 0-0.741897 0L380.403335 352.270089l-0.490164 0-1.01512 0-9.501398 0c-3.000334 0-5.783727 1.278109-7.517207 3.239787-2.007727 1.779529-3.2623 4.517897-3.2623 7.528464l0 145.32483c0 3.01159 1.254573 5.748934 3.2623 7.483438 1.733481 2.007727 4.516874 3.284813 7.517207 3.284813l280.588513 0c3.000334 0 5.531993-1.278109 7.768941-3.284813 1.757017-1.961678 2.749624-4.471848 2.749624-7.483438L660.50373 363.03834c0-3.01159-0.741897-5.019317-2.020006-6.5246l-0.729617-1.003863C655.517159 353.548198 652.984477 352.270089 649.985166 352.270089L649.985166 352.270089zM944.126346 862.391299 944.126346 862.391299c9.775644 5.977132 13.528108 19.026332 7.505951 29.293163-5.52176 9.490142-18.536168 13.277398-28.814256 7.254218l-42.581818-24.319895 0 48.867988c0 11.772115-9.251711 21.262256-20.794605 21.262256-12.023848 0-21.525246-9.490142-21.525246-21.262256l0-48.867988-42.114167 24.319895c-10.289344 6.02318-23.282263 2.236947-29.064966-7.756661-5.782703-10.038634-2.521426-22.813588 7.517207-28.79072l42.594097-24.320918-42.594097-24.593118c-10.038634-6.02318-13.516852-18.524912-7.517207-29.063943 5.782703-9.993608 18.776645-13.004175 29.064966-7.483438l42.114167 24.548092 0-49.14121c0-11.497868 9.501398-21.262256 21.525246-21.262256 11.542894 0 20.794605 9.764388 20.794605 21.262256l0 49.14121 42.581818-24.548092c10.278087-5.520737 23.293519-2.509147 28.814256 7.756661 6.022157 10.266831 2.018983 23.088858-7.505951 28.791743l-42.594097 24.593118L944.126346 862.391299 944.126346 862.391299zM711.115432 862.391299 711.115432 862.391299c10.048867 5.977132 13.31219 19.026332 7.528464 29.293163-5.783727 9.490142-18.786878 13.277398-28.814256 7.254218l-42.594097-24.319895 0 48.867988c0 11.772115-9.250688 21.262256-20.794605 21.262256-12.022825 0-21.547759-9.490142-21.547759-21.262256l0-48.867988-42.343387 24.319895c-10.265808 6.02318-23.030529 2.236947-28.813233-7.756661-5.52176-10.038634-2.270716-22.813588 8.030907-28.79072l42.593074-24.320918-42.593074-24.593118c-10.3006-6.02318-13.551644-18.524912-8.030907-29.063943 6.010901-9.993608 19.027355-13.004175 28.813233-7.483438l42.343387 24.046672 0-48.63979c0-11.497868 9.524934-21.262256 21.547759-21.262256 11.543917 0 20.794605 9.764388 20.794605 21.262256l0 49.14121 42.594097-24.548092c10.027377-5.520737 23.030529-2.509147 28.814256 7.756661 5.782703 10.266831 2.520403 23.088858-7.528464 28.791743l-42.581818 24.593118L711.115432 862.391299 711.115432 862.391299zM478.12703 862.391299 478.12703 862.391299c10.026354 5.977132 13.505595 19.026332 7.517207 29.293163-5.533017 9.490142-18.776645 13.277398-28.563546 7.254218l-42.594097-24.319895 0 48.867988c0 11.772115-9.502421 21.262256-21.297049 21.262256-11.543917 0-20.794605-9.490142-20.794605-21.262256l0-48.867988-42.582841 24.319895c-10.540054 6.02318-23.065322 2.236947-29.076222-7.756661-5.52176-10.038634-2.258437-22.813588 8.030907-28.79072l42.080397-24.320918-42.080397-24.593118c-10.289344-6.02318-13.551644-18.524912-8.030907-29.063943 6.011924-9.993608 18.536168-13.004175 29.076222-7.483438l42.582841 24.046672 0-48.63979c0-11.497868 9.250688-21.262256 20.794605-21.262256 11.794627 0 21.297049 9.764388 21.297049 21.262256l0 49.14121 42.594097-24.548092c10.015098-5.520737 23.030529-2.509147 28.563546 7.756661 5.988388 10.266831 2.509147 23.088858-7.517207 28.791743l-42.856064 24.593118L478.12703 862.391299 478.12703 862.391299z" p-id="2178"></path></svg>