<?xml version="1.0" standalone="no"?><!DOCTYPE svg PUBLIC "-//W3C//DTD SVG 1.1//EN" "http://www.w3.org/Graphics/SVG/1.1/DTD/svg11.dtd"><svg t="1546828153817" class="icon" style="" viewBox="0 0 1024 1024" version="1.1" xmlns="http://www.w3.org/2000/svg" p-id="4920" xmlns:xlink="http://www.w3.org/1999/xlink" width="200" height="200"><defs><style type="text/css">@font-face { font-family: rbicon; src: url("chrome-extension://dipiagiiohfljcicegpgffpbnjmgjcnf/fonts/rbicon.woff2") format("woff2"); font-weight: normal; font-style: normal; }
</style></defs><path d="M938.285714 818.285714H115.428571c-5.028571 0-9.142857 4.114286-9.142857 9.142857v68.571429c0 5.028571 4.114286 9.142857 9.142857 9.142857h822.857143c5.028571 0 9.142857-4.114286 9.142857-9.142857v-68.571429c0-5.028571-4.114286-9.142857-9.142857-9.142857zM384 299.085714h84.457143V685.714286c0 5.028571 4.114286 9.142857 9.142857 9.142857h68.571429c5.028571 0 9.142857-4.114286 9.142857-9.142857V299.085714H640c7.657143 0 11.885714-8.8 7.2-14.742857L519.2 122.285714a9.142857 9.142857 0 0 0-14.4 0l-128 161.942857c-4.685714 6.057143-0.457143 14.857143 7.2 14.857143z" p-id="4921"></path></svg>